<svg width="11" height="6" viewBox="0 0 11 6" fill="none" xmlns="http://www.w3.org/2000/svg">
<path fill-rule="evenodd" clip-rule="evenodd" d="M7.72752 1.03818L8.86986 2.18052H0.608151C0.272278 2.18052 0 2.4528 0 2.78867C0 3.12454 0.272278 3.39682 0.60815 3.39682H8.87876L7.72784 4.54775C7.49034 4.78524 7.49034 5.1703 7.72784 5.4078C7.96533 5.6453 8.35039 5.6453 8.58789 5.4078L10.738 3.25766C10.7617 3.23395 10.7831 3.20876 10.8021 3.1824C10.8923 3.0763 10.9467 2.93884 10.9467 2.78867C10.9467 2.61115 10.8707 2.4514 10.7493 2.34022L10.7377 2.32826L8.58757 0.178123C8.35007 -0.0593744 7.96501 -0.0593744 7.72752 0.178123C7.49002 0.415621 7.49002 0.800681 7.72752 1.03818Z" fill="#E4B243"/>
</svg>
