<svg width="21" height="21" viewBox="0 0 21 21" fill="none" xmlns="http://www.w3.org/2000/svg">
<path d="M9.26879 10.5055L0.266943 1.50363C-0.0804901 1.16808 -0.0901241 0.614443 0.24542 0.267011C0.580965 -0.080422 1.1346 -0.0900558 1.48204 0.245488C1.48931 0.252509 1.49649 0.259683 1.50356 0.267011L10.5055 9.26885L19.5073 0.26696C19.8547 -0.0685847 20.4084 -0.0589508 20.7439 0.288482C21.0713 0.627408 21.0713 1.1647 20.7439 1.50363L11.7421 10.5055L20.7439 19.5073C21.0854 19.8488 21.0854 20.4024 20.7439 20.7439C20.4024 21.0853 19.8488 21.0853 19.5073 20.7439L10.5055 11.7421L1.50361 20.7439C1.15618 21.0795 0.602539 21.0698 0.266994 20.7224C-0.0603008 20.3835 -0.0603008 19.8462 0.266994 19.5073L9.26879 10.5055Z" fill="#2C318A"/>
</svg>
